<?xml version="1.0" encoding="iso-8859-1"?>
<!-- Generator: Adobe Illustrator 18.0.0, SVG Export Plug-In . SVG Version: 6.00 Build 0)  -->
<!DOCTYPE svg PUBLIC "-//W3C//DTD SVG 1.1//EN" "http://www.w3.org/Graphics/SVG/1.1/DTD/svg11.dtd">
<svg xmlns="http://www.w3.org/2000/svg" xmlns:xlink="http://www.w3.org/1999/xlink" version="1.1" id="Capa_1" x="0px" y="0px" viewBox="0 0 490.107 490.107" style="enable-background:new 0 0 490.107 490.107;" xml:space="preserve" width="512px" height="512px">
<g>
	<path d="M489.639,446.754l-39.646-80.203c-0.795-1.665-2.563-2.686-4.412-2.565c-1.836,0.119-3.46,1.338-4.082,3.115l-8.527,24.836   l-40.664-63.178V220.887c0-8.718-5.243-16.581-13.291-19.934l-116.493-48.528l-0.018-35.482l25.246,7.301   c1.787,0.52,3.736-0.087,4.881-1.537c1.184-1.46,1.357-3.476,0.46-5.093l-42.862-78.53c-0.811-1.498-2.389-2.416-4.045-2.391   c-1.691-0.016-3.238,0.909-4.053,2.383l-42.829,78.529c-0.909,1.625-0.735,3.651,0.446,5.101c1.146,1.45,3.077,2.047,4.876,1.546   l25.234-7.302l0.017,35.483l-116.521,48.618c-8.042,3.355-13.279,11.215-13.279,19.929v140.794l-42.942,30.161l-8.527-24.836   c-0.624-1.777-2.253-2.997-4.082-3.115c-1.85-0.121-3.618,0.899-4.414,2.565L0.47,446.754c-0.721,1.524-0.622,3.317,0.367,4.687   c0.94,1.379,2.595,2.137,4.284,1.945l88.896-10.081c1.817-0.208,3.38-1.507,3.891-3.308c0.528-1.778-0.075-3.723-1.544-4.877   l-20.468-16.46l42.783-30.045l117.598,59.682c6.136,3.114,13.388,3.117,19.527,0.009l116.578-59.022l41.828,29.377l-20.465,16.46   c-1.469,1.155-2.072,3.1-1.551,4.877c0.512,1.801,2.075,3.1,3.893,3.308l88.896,10.081c1.693,0.192,3.349-0.566,4.289-1.945   C490.262,450.07,490.356,448.278,489.639,446.754z M132.722,244.012l78.41,39.753l-78.41,55.074V244.012z M229.862,408.386   l-80.914-41.039l80.914-56.834V408.386z M229.879,254.476l-73.804-35.906l73.804-30.772V254.476z M262.525,187.798l73.801,30.772   l-73.801,35.897V187.798z M262.508,408.386v-58.014c0-0.056,0.033-0.105,0.033-0.161v-38.088l79.572,55.901L262.508,408.386z    M359.668,340.441l-79.75-56.007l79.75-40.431V340.441z" fill="#F05454"/>
</g>
<g>
</g>
<g>
</g>
<g>
</g>
<g>
</g>
<g>
</g>
<g>
</g>
<g>
</g>
<g>
</g>
<g>
</g>
<g>
</g>
<g>
</g>
<g>
</g>
<g>
</g>
<g>
</g>
<g>
</g>
</svg>
